<svg width="32" height="32" viewBox="0 0 32 32" fill="none" xmlns="http://www.w3.org/2000/svg">
  <rect width="32" height="32" rx="6" fill="#3B82F6"/>
  <path d="M16 8C11.58 8 8 11.58 8 16C8 20.42 11.58 24 16 24C20.42 24 24 20.42 24 16C24 11.58 20.42 8 16 8ZM16 22C12.69 22 10 19.31 10 16C10 12.69 12.69 10 16 10C19.31 10 22 12.69 22 16C22 19.31 19.31 22 16 22Z" fill="white"/>
  <path d="M16 12C13.79 12 12 13.79 12 16C12 18.21 13.79 20 16 20C18.21 20 20 18.21 20 16C20 13.79 18.21 12 16 12ZM16 18C14.9 18 14 17.1 14 16C14 14.9 14.9 14 16 14C17.1 14 18 14.9 18 16C18 17.1 17.1 18 16 18Z" fill="white"/>
  <circle cx="16" cy="16" r="1" fill="white"/>
</svg> 