<svg width="40" height="40" viewBox="0 0 40 40" fill="none" xmlns="http://www.w3.org/2000/svg">
  <rect width="40" height="40" rx="8" fill="#3B82F6"/>
  <path d="M20 10C14.48 10 10 14.48 10 20C10 25.52 14.48 30 20 30C25.52 30 30 25.52 30 20C30 14.48 25.52 10 20 10ZM20 28C15.58 28 12 24.42 12 20C12 15.58 15.58 12 20 12C24.42 12 28 15.58 28 20C28 24.42 24.42 28 20 28Z" fill="white"/>
  <path d="M20 14C16.69 14 14 16.69 14 20C14 23.31 16.69 26 20 26C23.31 26 26 23.31 26 20C26 16.69 23.31 14 20 14ZM20 24C17.79 24 16 22.21 16 20C16 17.79 17.79 16 20 16C22.21 16 24 17.79 24 20C24 22.21 22.21 24 20 24Z" fill="white"/>
  <circle cx="20" cy="20" r="2" fill="white"/>
</svg> 